<?xml version="1.0" standalone="no"?>
<!DOCTYPE svg PUBLIC "-//W3C//DTD SVG 20010904//EN"
 "http://www.w3.org/TR/2001/REC-SVG-20010904/DTD/svg10.dtd">
<svg version="1.0" xmlns="http://www.w3.org/2000/svg"
 width="788.000000pt" height="474.000000pt" viewBox="0 0 788.000000 474.000000"
 preserveAspectRatio="xMidYMid meet">

<g transform="translate(0.000000,474.000000) scale(0.100000,-0.100000)"
fill="#000000" stroke="none">
<path d="M7330 3020 l0 -130 -59 0 -60 0 -3 -125 -3 -125 63 0 62 0 0 -288 c0
-317 5 -355 59 -429 17 -23 50 -50 78 -64 42 -21 62 -24 168 -24 109 0 125 2
178 27 l57 27 0 115 c0 64 -2 116 -4 116 -2 0 -23 -7 -46 -15 -23 -8 -66 -15
-95 -15 -41 0 -56 5 -73 23 -21 23 -22 30 -22 275 l0 252 120 0 120 0 0 125 0
125 -120 0 -120 0 0 130 0 130 -150 0 -150 0 0 -130z"/>
<path d="M4617 2899 c-62 -15 -137 -58 -188 -109 l-49 -49 0 74 0 75 -145 0
-145 0 0 -720 0 -720 145 0 145 0 0 260 c0 143 4 260 8 260 4 0 24 -16 43 -36
75 -78 215 -122 334 -104 168 24 291 115 360 265 43 92 55 154 55 278 0 162
-45 286 -139 389 -103 113 -282 171 -424 137z m123 -270 c53 -27 90 -67 119
-128 38 -81 37 -193 -2 -273 -33 -67 -91 -123 -144 -137 -129 -36 -252 19
-307 139 -16 35 -21 65 -21 136 0 81 3 96 30 149 17 32 47 72 67 88 70 56 178
67 258 26z"/>
<path d="M5698 2894 c-268 -57 -442 -269 -441 -534 1 -291 222 -517 524 -537
237 -16 447 103 550 312 43 86 44 91 48 202 2 65 -2 133 -8 159 -37 146 -146
282 -281 348 -129 63 -257 79 -392 50z m243 -272 c104 -54 156 -158 147 -291
-6 -74 -31 -132 -79 -180 -46 -46 -86 -63 -159 -69 -127 -9 -212 38 -268 148
-32 62 -33 70 -30 151 4 76 8 93 37 141 53 88 123 126 232 127 55 1 77 -4 120
-27z"/>
<path d="M7015 2901 c-87 -21 -166 -86 -210 -171 l-24 -45 -1 103 0 102 -150
0 -150 0 2 -522 3 -523 148 -3 147 -3 0 222 c0 257 9 327 54 401 43 73 106
113 201 129 l75 13 0 153 0 153 -32 -1 c-18 -1 -46 -4 -63 -8z"/>
<path d="M3435 2879 c-162 -56 -242 -188 -221 -362 16 -123 98 -193 310 -262
198 -65 224 -83 210 -139 -22 -88 -233 -78 -384 18 -30 20 -59 36 -65 36 -10
0 -125 -174 -125 -189 0 -4 32 -26 71 -49 134 -81 304 -120 442 -102 204 26
313 126 324 298 7 96 -7 146 -52 199 -51 60 -118 99 -260 148 -149 53 -179 67
-199 97 -20 29 -20 41 2 67 41 51 172 42 301 -21 36 -17 69 -32 74 -32 7 -1
120 195 115 199 -2 2 -28 16 -58 33 -140 78 -355 105 -485 61z"/>
</g>
</svg>
