<?xml version="1.0" encoding="UTF-8"?>
<!-- Generator: Adobe Illustrator 26.2.1, SVG Export Plug-In . SVG Version: 6.00 Build 0)  -->
<svg version="1.1" id="Calque_1" xmlns="http://www.w3.org/2000/svg" xmlns:xlink="http://www.w3.org/1999/xlink" x="0px" y="0px" viewBox="0 0 222 50" style="enable-background:new 0 0 222 50;" xml:space="preserve">
<g>
	<polygon points="17.8,17 23,5.9 21.9,3.6 16.8,14.7  "/>
</g>
<g>
	<polygon points="19.4,20.4 24.6,9.3 23.5,6.9 18.3,18  "/>
</g>
<g>
	<polygon points="21,23.9 26.2,12.8 25.1,10.4 19.9,21.5  "/>
</g>
<polygon points="22.7,27.4 27.8,16.3 26.7,13.9 21.5,25 "/>
<polygon points="24.3,30.9 29.5,19.8 28.3,17.4 23.2,28.5 "/>
<polygon points="25.9,34.4 31.1,23.3 30,20.9 24.8,32 "/>
<polygon points="15.2,13.7 2.7,40.4 4.2,40.4 15.9,15.3 "/>
<polygon points="16.3,16.2 5,40.4 6.6,40.4 17.1,17.8 "/>
<polygon points="17.5,18.7 7.4,40.4 8.9,40.4 18.3,20.3 "/>
<polygon points="18.7,21.2 9.7,40.4 11.2,40.4 19.4,22.8 "/>
<polygon points="19.8,23.7 12,40.4 13.5,40.4 20.6,25.3 "/>
<polygon points="21,26.2 14.3,40.4 15.9,40.4 21.7,27.8 "/>
<polygon points="22.1,28.7 16.7,40.4 18.2,40.4 22.9,30.3 "/>
<polygon points="23.3,31.2 19,40.4 20.5,40.4 24.1,32.8 "/>
<polygon points="24.5,33.7 21.3,40.4 22.8,40.4 25.2,35.3 "/>
<polygon points="25.6,36.2 23.7,40.4 25.2,40.4 26.4,37.8 "/>
<polygon points="26.8,38.7 26,40.4 27.5,40.4 27.6,40.3 "/>
<polygon points="14,11.4 0.4,40.4 1.8,40.4 14.7,12.9 "/>
<polygon points="27,36.8 34,21.8 33.6,20.9 26.6,35.8 "/>
<polygon points="41.8,40.4 42.7,40.4 42.7,40.4 42.2,39.5 "/>
<polygon points="39.9,40.4 40.8,40.4 41.7,38.4 41.3,37.4 "/>
<polygon points="38.8,40.4 40.8,36.3 40.3,35.3 37.9,40.4 "/>
<polygon points="36.9,40.4 39.8,34.2 39.4,33.3 36,40.4 "/>
<polygon points="35,40.4 38.8,32.2 38.4,31.2 34.1,40.4 "/>
<polygon points="33.1,40.4 37.9,30.1 37.4,29.1 32.2,40.4 "/>
<polygon points="30.2,40.4 31.1,40.4 36.9,28 36.5,27.1 "/>
<polygon points="28.7,40.4 29.2,40.4 36,25.9 35.5,25 28.5,40 "/>
<polygon points="28,38.9 35,23.9 34.5,22.9 27.6,37.9 "/>
<path d="M81.5,7.2l5.9-1.3v33.6h-5.9V7.2z"/>
<path d="M79.3,21.5l-17.4,0.1L59.4,27L71.6,27c-0.5,2-1.6,3.8-3.4,5.1c-1.7,1.3-3.9,2.1-6.5,2.1c-5.2,0-10.7-3.9-10.7-11.5  c0-7.3,5.3-11.4,10.6-11.4c2.5,0,4.6,0.8,6.3,2.2c1,0.8,1.8,1.7,2.4,2.7l7-1.2c-2.5-5.6-8.7-9.8-15.7-9.7c-9.6,0-17.4,7.4-17.3,17.4  c0,9.8,7.6,17.5,17.4,17.4c5.9,0,13-3.1,16-10.1C79.1,27.1,79.4,23.7,79.3,21.5z"/>
<path d="M90.6,5.2l5.9-1.3v7.3h-5.9V5.2z M90.6,14.5h5.9v24.9h-5.9V14.5z"/>
<path d="M111,21.3c0-1.3-0.7-2.7-3-2.7c-2,0-3,1.3-3,2.5c0,1.6,1.9,2.5,4.2,3.1c4,1.1,8.3,2.3,8.4,7.6c0.1,5.1-4.2,8.4-9.4,8.4  c-3.9,0-9.1-2-9.5-8h5.9c0.2,2.7,2.5,3.2,3.7,3.2c1.9,0,3.4-1.2,3.4-2.9c0-2.1-1.9-2.7-6.4-4.3c-3.4-1-6.1-2.9-6.1-6.5  c0-4.9,4.1-7.9,8.9-7.9c3.4,0,8.3,1.5,8.8,7.5H111z"/>
<path d="M131.6,21.3c0-1.3-0.7-2.7-3-2.7c-2,0-2.9,1.3-2.9,2.5c0,1.6,1.9,2.5,4.2,3.1c4,1.1,8.3,2.3,8.3,7.6  c0.1,5.1-4.2,8.4-9.4,8.4c-3.9,0-9.1-2-9.5-8h5.9c0.2,2.7,2.5,3.2,3.7,3.2c1.9,0,3.4-1.2,3.4-2.9c0-2.1-1.9-2.7-6.4-4.3  c-3.4-1-6.1-2.9-6.1-6.5c0-4.9,4.1-7.9,8.9-7.9c3.4,0,8.3,1.5,8.8,7.5H131.6z"/>
<path d="M140.5,5.2l5.9-1.3v10v3.5c1.4-2.6,4.4-3.8,7.4-3.7c3.9,0,6.3,1.3,7.7,3.5c1.5,2.2,2,5.1,2,8.5v13.7h-5.9V26  c0-1.9-0.3-3.5-1.1-4.7c-0.9-1.2-2.2-2-4.3-2c-2.4,0-3.8,1-4.6,2.2c-0.8,1.2-1,2.7-1,4v13.9h-5.9V5.2z"/>
<path d="M194.8,15.2l5.6-1.3v4.3c1.8-2.5,4.7-4.4,8.8-4.4c8.7,0,12.4,7.4,12.4,13.4c0,7.1-5,13-12.3,13c-4.9,0-7.5-2.5-8.5-4.1v3.3  v9.6h-5.9V15.2z M215.6,27c0-3.6-2.6-7.7-7.6-7.7c-2.2,0-4,0.9-5.4,2.3c-1.3,1.4-2.1,3.3-2.1,5.5c0,2.1,0.8,4,2.2,5.4  c1.4,1.4,3.3,2.2,5.4,2.2C212.6,34.7,215.6,31.1,215.6,27L215.6,27z"/>
<path d="M192,22.5l-5.6,2.8h0c-0.3-1.9-0.6-2.9-2-4.4c-1.4-1.5-3.2-2.2-5.2-2.2c-1.9,0-3.6,0.7-5.1,2.1c-1.5,1.4-2.2,3.2-2.2,5.3  c0,2,0.7,3.7,2.1,5.2c1.4,1.5,3.1,2.2,5.2,2.2c2.1,0,3.8-0.7,5.2-2.1c0.7-0.7,1.2-1.6,1.6-2.6c0-0.1,0.1-0.2,0.1-0.3l0,0l6.4-3.2  c0,0.3,0,0.5,0,0.8c0,3.6-1.3,6.7-3.9,9.3c-2.6,2.6-5.8,3.9-9.5,3.9c-3.6,0-6.7-1.3-9.4-3.9c-2.6-2.6-3.9-5.7-3.9-9.3  c0-3.8,1.3-7,4-9.5c2.6-2.6,5.8-3.9,9.6-3.9c3.7,0,6.8,1.3,9.4,3.9C190.3,18.4,191.4,20.4,192,22.5z"/>
</svg>