<?xml version="1.0" standalone="no"?>
<!DOCTYPE svg PUBLIC "-//W3C//DTD SVG 20010904//EN"
 "http://www.w3.org/TR/2001/REC-SVG-20010904/DTD/svg10.dtd">
<svg version="1.0" xmlns="http://www.w3.org/2000/svg"
 width="800.000000pt" height="568.000000pt" viewBox="0 0 800.000000 568.000000"
 preserveAspectRatio="xMidYMid meet">

<g transform="translate(0.000000,568.000000) scale(0.100000,-0.100000)"
fill="#000000" stroke="none">
<path d="M0 2840 l0 -2840 4000 0 4000 0 0 2840 0 2840 -4000 0 -4000 0 0
-2840z m2169 1648 c25 -6 74 -23 109 -39 l62 -28 15 30 c15 28 18 29 85 29
l70 0 0 -132 c0 -73 3 -150 6 -170 l7 -38 -73 0 -72 0 -66 72 c-84 90 -157
128 -249 128 -34 0 -73 -4 -86 -9 -54 -21 -80 -75 -61 -125 12 -31 74 -56 243
-101 247 -65 350 -124 386 -220 24 -62 18 -215 -11 -270 -28 -53 -121 -128
-197 -157 -54 -20 -79 -23 -197 -22 -144 0 -199 13 -313 70 l-49 24 -16 -40
-17 -40 -75 2 -75 3 0 190 0 190 83 3 82 3 19 -43 c52 -120 148 -186 281 -196
118 -8 190 32 190 105 0 59 -52 88 -249 138 -281 71 -395 156 -408 304 -15
165 108 308 301 348 67 14 200 10 275 -9z m2375 7 c199 -42 352 -184 401 -370
19 -73 19 -232 1 -301 -23 -88 -84 -191 -145 -245 -113 -101 -245 -143 -434
-137 l-118 3 3 -517 c3 -603 -6 -556 112 -565 l66 -6 0 -73 0 -74 -240 0 -240
0 0 71 0 72 -34 -45 c-92 -120 -259 -168 -415 -119 -72 22 -144 63 -165 93
-15 21 -16 21 -56 -24 -54 -61 -113 -82 -219 -76 -107 6 -189 53 -237 136 -1
2 -31 -19 -67 -46 -79 -60 -137 -81 -244 -89 -120 -9 -200 15 -263 76 -54 53
-90 135 -90 208 0 159 99 240 379 309 198 48 242 73 261 146 22 80 -33 174
-115 197 -62 17 -154 13 -202 -9 -24 -10 -43 -23 -43 -28 0 -4 16 -14 36 -21
20 -7 43 -26 55 -44 75 -125 -98 -249 -242 -174 -108 57 -106 218 4 312 136
117 475 137 665 41 62 -32 118 -94 132 -147 8 -28 11 -139 11 -321 -2 -317 4
-348 58 -348 48 0 52 19 49 243 -3 172 0 213 16 277 37 147 101 241 196 289
170 84 367 60 474 -60 l43 -48 7 152 c7 166 0 211 -37 223 -12 4 -159 7 -327
8 l-305 1 -3 76 -3 76 57 6 c91 9 89 1 92 285 4 283 -5 351 -47 381 -89 64
-241 10 -285 -100 -24 -60 -39 -235 -33 -382 7 -159 14 -173 92 -182 l55 -7 0
-79 0 -79 -312 2 -313 3 -3 76 -3 76 72 9 c111 14 109 9 110 294 1 344 2 325
-23 355 -19 21 -36 27 -88 33 l-65 7 0 75 0 75 235 0 235 0 3 -77 c2 -43 6
-78 9 -78 4 0 37 29 74 65 95 92 157 119 274 119 160 1 248 -50 296 -170 21
-56 23 -77 28 -355 7 -355 2 -339 118 -339 40 0 73 2 73 5 0 3 -14 28 -31 55
-67 110 -93 268 -65 400 45 212 192 360 401 404 91 19 232 19 319 1z m924
-112 l-3 -78 -35 -5 c-20 -4 -41 -10 -48 -14 -17 -10 -15 -52 5 -117 9 -30 40
-144 68 -254 50 -189 53 -198 65 -170 30 72 170 488 170 503 0 32 -19 46 -67
51 l-48 6 -3 78 -3 77 271 0 271 0 -3 -77 -3 -78 -30 -3 c-58 -5 -73 -12 -79
-36 -4 -16 20 -110 70 -273 41 -136 78 -255 81 -263 6 -17 106 276 149 439 27
101 27 104 9 117 -10 8 -36 14 -57 14 l-38 0 0 80 0 80 224 0 c256 0 236 8
236 -97 l0 -53 -41 -6 c-24 -4 -55 -19 -74 -35 -29 -26 -45 -67 -161 -419
l-128 -390 -160 2 -159 3 -76 252 c-41 139 -77 251 -79 248 -3 -2 -44 -116
-92 -252 l-88 -248 -159 -3 -160 -2 -42 147 c-94 327 -173 588 -183 608 -20
38 -61 74 -92 80 -69 14 -66 10 -66 91 l0 74 280 0 281 0 -3 -77z m-4478
-1353 c0 -436 3 -606 12 -625 13 -28 32 -36 104 -38 l49 -2 3 -76 3 -77 -187
-3 c-103 -3 -252 -3 -331 0 l-143 3 0 73 0 72 62 7 c34 3 72 13 85 21 41 27
40 11 36 666 -3 433 3 408 -109 418 l-69 6 -3 78 -3 77 246 0 245 0 0 -600z
m805 215 c135 -36 241 -121 296 -239 32 -69 59 -190 59 -267 l0 -49 -345 0
-345 0 0 -48 c0 -62 25 -157 51 -193 61 -87 243 -104 329 -32 32 27 62 78 74
126 l6 27 106 0 107 0 -7 -42 c-10 -61 -57 -158 -102 -207 -131 -146 -423
-183 -639 -82 -114 53 -194 147 -239 283 -93 277 13 570 248 683 40 19 90 39
112 44 64 15 224 13 289 -4z m3250 0 c135 -36 241 -121 296 -239 32 -69 59
-190 59 -267 l0 -49 -345 0 -345 0 0 -44 c0 -169 70 -261 209 -273 127 -12
216 51 245 170 l6 27 106 0 106 0 -7 -37 c-28 -149 -119 -263 -249 -312 -157
-58 -343 -52 -491 18 -114 53 -194 147 -239 282 -93 278 13 571 248 684 40 19
90 39 112 44 64 15 224 13 289 -4z m1156 -41 c133 -67 161 -235 55 -341 -83
-82 -203 -66 -256 36 -30 58 -3 139 57 169 43 23 32 34 -33 34 -90 0 -154 -68
-180 -192 -11 -53 -16 -138 -17 -287 -2 -209 -2 -213 21 -235 20 -20 33 -23
100 -23 l77 0 3 -83 3 -82 -338 2 -338 3 -3 78 -3 77 33 0 c18 0 49 5 69 10
64 18 69 41 69 327 0 253 -7 315 -38 332 -9 5 -43 12 -75 16 l-58 7 3 77 3 76
233 3 232 2 0 -57 0 -57 48 46 c51 49 75 64 137 85 53 17 137 7 196 -23z m89
-524 c0 -5 -23 -10 -51 -10 -47 0 -50 -2 -47 -22 3 -20 10 -23 51 -26 26 -2
47 -7 47 -12 0 -5 -21 -10 -47 -12 -44 -3 -48 -5 -48 -28 0 -23 4 -25 48 -28
67 -4 58 -22 -12 -22 l-58 0 -1 78 c0 42 2 80 5 85 7 11 113 8 113 -3z m-20
-198 c25 -20 30 -63 10 -87 -14 -17 -62 -20 -91 -5 -28 15 -26 74 3 94 29 21
51 20 78 -2z m-60 -131 c0 -6 -4 -13 -10 -16 -18 -11 -11 -53 10 -60 47 -15
84 23 54 57 -10 10 -14 21 -10 26 4 4 16 -4 27 -17 44 -54 -26 -116 -92 -81
-32 18 -21 100 13 100 4 0 8 -4 8 -9z m80 -146 c0 -8 -4 -15 -10 -15 -5 0 -10
7 -10 15 0 8 5 15 10 15 6 0 10 -7 10 -15z m-5346 -384 c35 -36 66 -136 66
-209 0 -50 -16 -141 -36 -209 -4 -16 -1 -23 18 -28 39 -12 56 -34 83 -106 39
-102 90 -117 69 -21 -4 20 -8 60 -8 89 -1 43 4 57 30 89 16 21 42 47 57 57 24
19 29 19 64 6 104 -40 109 -186 9 -265 -20 -16 -36 -32 -36 -36 0 -17 84 -7
117 13 29 18 37 19 44 8 17 -27 8 -40 -43 -64 -60 -28 -104 -31 -153 -11 -28
12 -36 12 -45 1 -37 -44 -97 -9 -158 93 -61 102 -75 98 -121 -39 -25 -76 -31
-85 -60 -93 -48 -14 -106 8 -156 59 -70 70 -82 101 -111 303 -4 23 -10 32 -24
32 -25 0 -50 10 -50 21 0 4 12 14 28 21 26 12 27 17 30 90 2 66 6 78 22 83 31
10 37 0 44 -66 3 -34 8 -64 10 -66 2 -2 15 1 30 7 38 14 79 13 74 -2 -2 -7
-25 -24 -51 -38 -53 -28 -53 -29 -36 -143 16 -111 46 -193 80 -222 38 -31 59
-32 86 -2 l21 22 -40 155 c-52 205 -55 311 -12 389 31 58 85 111 112 111 10 0
31 -13 46 -29z m1861 -16 c17 -34 20 -60 20 -180 -1 -156 -12 -197 -75 -268
l-32 -37 17 -49 c19 -57 50 -101 71 -101 8 0 26 11 40 25 21 21 24 31 18 60
-3 19 -3 51 0 70 15 79 112 142 176 115 22 -9 40 -8 87 5 88 26 157 30 194 11
18 -9 34 -16 36 -16 1 0 3 37 3 83 0 158 32 266 91 308 40 28 72 19 105 -31
50 -75 66 -193 39 -290 -8 -30 -17 -64 -20 -75 -4 -15 2 -24 26 -35 32 -15 37
-22 87 -125 26 -53 33 -60 62 -63 l32 -3 -7 49 c-9 65 8 125 48 168 46 49 85
54 129 15 l35 -30 54 34 c29 19 59 35 65 35 7 0 26 -16 41 -35 l29 -35 53 45
c57 49 74 53 109 29 30 -20 36 -38 66 -181 13 -65 27 -130 31 -145 7 -27 5
-28 -29 -28 -44 0 -52 14 -72 118 -17 88 -41 169 -54 177 -15 9 -61 -26 -72
-54 -6 -14 -14 -70 -17 -123 -4 -54 -9 -99 -11 -102 -3 -2 -18 -6 -35 -8 -36
-4 -43 14 -44 122 -1 81 -17 120 -50 120 -27 0 -47 -28 -33 -42 17 -17 15 -94
-3 -127 -37 -72 -110 -99 -175 -66 -21 11 -36 12 -55 5 -15 -6 -41 -10 -59
-10 -38 0 -53 18 -111 128 -20 39 -43 72 -49 72 -7 0 -23 -11 -36 -25 -20 -21
-25 -39 -29 -110 -4 -46 -11 -89 -18 -96 -20 -20 -41 -2 -48 40 -4 23 -8 41
-10 41 -2 0 -17 -13 -33 -30 -53 -53 -136 -38 -201 35 -17 20 -31 40 -31 45 0
6 -4 10 -10 10 -5 0 -10 -8 -10 -18 0 -31 -59 -102 -97 -119 -44 -18 -88 -11
-120 18 l-22 22 -31 -27 c-36 -30 -84 -34 -118 -11 -27 20 -67 87 -88 149 -19
55 -38 55 -42 0 -7 -109 -32 -147 -105 -157 -46 -7 -120 21 -131 49 -5 13 -9
13 -36 -1 -48 -25 -112 -30 -148 -11 -29 15 -35 15 -62 1 -16 -8 -43 -15 -61
-15 -71 0 -139 130 -139 266 l0 64 -32 -6 c-18 -4 -48 -14 -67 -23 l-34 -16
-1 -95 c-1 -95 -13 -136 -52 -181 -17 -19 -63 -14 -71 8 -3 8 7 37 22 65 37
67 46 168 20 222 -17 34 -17 39 -2 54 11 10 36 16 74 17 32 1 88 5 126 10 l67
8 1 -29 c5 -212 10 -242 53 -276 19 -16 66 -25 66 -13 0 3 -12 24 -27 47 -40
60 -40 147 0 207 15 23 43 49 62 58 33 16 35 15 72 -9 21 -14 55 -43 77 -64
35 -35 38 -37 32 -14 -3 14 -9 82 -12 151 -6 117 -5 130 15 171 14 29 34 52
60 66 49 28 65 28 83 0 53 -82 72 -257 41 -375 l-19 -72 22 -5 c12 -3 42 -3
67 0 l44 6 -12 43 c-48 157 -9 336 88 406 53 38 77 35 102 -16z m2173 -315
c69 -42 51 -82 -33 -73 -52 5 -56 4 -90 -30 -30 -30 -35 -42 -35 -82 0 -57 12
-80 50 -100 83 -43 134 -5 175 129 14 46 33 90 43 99 26 23 83 30 145 17 48
-10 58 -9 88 9 19 11 50 23 70 26 31 6 41 2 72 -25 l37 -32 26 21 c14 11 42
23 61 27 27 5 39 2 58 -16 14 -13 27 -32 31 -42 5 -16 10 -15 47 17 77 66 131
39 177 -89 14 -38 32 -22 39 36 5 38 11 45 45 62 54 27 114 31 160 12 37 -16
38 -15 77 16 50 40 124 49 184 23 23 -10 68 -18 107 -19 47 -1 72 -7 86 -19
24 -22 28 -21 59 3 15 12 41 20 63 20 56 0 79 -32 135 -184 17 -46 19 -48 32
-30 11 15 13 39 8 111 l-7 92 27 7 c36 9 41 -2 48 -96 14 -209 118 -198 151
17 12 81 20 91 77 92 27 1 27 1 22 -66 -2 -38 -5 -80 -7 -95 -1 -16 -1 -28 1
-28 2 0 27 17 56 39 29 21 65 41 80 45 25 6 27 5 18 -11 -5 -10 -41 -47 -80
-82 l-71 -63 0 -106 c-1 -197 -29 -309 -91 -352 -15 -12 -54 -26 -84 -33 -55
-11 -57 -11 -76 13 -17 21 -19 37 -16 101 4 81 35 164 97 255 16 25 30 47 30
50 0 2 -15 4 -34 4 -18 0 -45 9 -59 20 -20 16 -34 19 -66 14 -81 -13 -112 16
-141 133 -6 24 -21 55 -34 70 -22 26 -26 27 -50 14 -33 -18 -40 -40 -41 -131
l0 -75 -34 -3 c-44 -4 -51 8 -51 93 0 73 -17 115 -45 115 -11 0 -14 -19 -12
-94 2 -87 0 -96 -22 -120 -27 -29 -114 -52 -155 -42 -15 4 -35 21 -46 39 -42
69 -12 154 67 192 44 21 51 33 31 53 -26 26 -107 4 -152 -42 -20 -19 -24 -31
-20 -58 8 -49 -11 -110 -46 -143 -26 -25 -40 -30 -83 -31 l-52 0 -3 -48 c-2
-26 4 -83 13 -127 9 -45 15 -82 13 -84 -2 -1 -13 -6 -25 -9 -31 -10 -52 35
-64 139 -11 103 -20 127 -53 148 -19 13 -32 38 -51 101 -14 46 -34 91 -44 100
-18 17 -20 17 -41 -4 -31 -31 -40 -63 -40 -146 l0 -74 -29 0 c-41 0 -51 17
-67 122 -15 94 -34 138 -58 138 -26 0 -65 -41 -72 -75 -6 -33 6 -129 21 -167
5 -13 -2 -19 -31 -27 -20 -6 -41 -8 -45 -5 -7 4 -21 65 -34 152 -4 23 -18 56
-32 73 -23 27 -28 29 -41 15 -13 -13 -13 -21 -2 -61 12 -43 11 -49 -16 -102
-39 -76 -95 -116 -161 -116 -42 0 -51 4 -81 39 l-35 39 -65 -32 c-35 -18 -79
-33 -96 -33 -83 0 -146 78 -146 179 1 153 130 256 238 191z"/>
<path d="M4280 4317 c-106 -56 -158 -275 -114 -484 28 -137 72 -198 159 -222
123 -34 233 28 272 154 26 86 26 336 -1 417 -22 67 -67 125 -112 144 -53 22
-153 18 -204 -9z"/>
<path d="M3640 3018 c-67 -45 -100 -152 -100 -318 0 -151 45 -291 103 -321 40
-22 90 -28 140 -17 116 24 162 122 161 343 0 245 -56 335 -207 335 -50 0 -71
-5 -97 -22z"/>
<path d="M2715 2684 c-190 -91 -225 -121 -225 -190 0 -75 48 -117 134 -117 93
0 143 45 165 151 12 60 15 193 4 191 -5 -1 -39 -16 -78 -35z"/>
<path d="M1550 3068 c-43 -28 -78 -97 -87 -166 l-6 -52 188 0 188 0 -7 53
c-16 122 -70 179 -176 185 -55 3 -70 0 -100 -20z"/>
<path d="M4800 3068 c-43 -28 -78 -97 -87 -166 l-6 -52 188 0 188 0 -7 53
c-17 125 -68 179 -176 185 -55 3 -70 0 -100 -20z"/>
<path d="M6213 2469 c-27 -10 -32 -54 -7 -63 28 -11 53 -6 62 12 18 35 -16 66
-55 51z"/>
<path d="M863 1738 c-11 -13 -26 -34 -33 -48 -20 -37 -15 -153 9 -260 12 -52
24 -106 27 -120 5 -22 7 -23 15 -7 20 36 59 235 59 302 0 69 -27 155 -48 155
-5 0 -18 -10 -29 -22z"/>
<path d="M1212 1395 c-14 -31 -16 -134 -3 -154 8 -13 12 -13 27 0 32 26 74 92
74 116 0 56 -77 85 -98 38z"/>
<path d="M2416 1735 c-47 -71 -59 -263 -23 -360 l15 -40 12 30 c21 55 60 229
60 272 0 43 -26 123 -40 123 -4 0 -15 -11 -24 -25z"/>
<path d="M2716 1735 c-28 -30 -49 -103 -42 -148 31 -212 33 -214 77 -114 24
56 32 174 16 250 -9 44 -20 46 -51 12z"/>
<path d="M3459 1734 c-23 -25 -24 -30 -23 -172 0 -81 5 -165 11 -187 l10 -40
31 65 c64 134 78 270 34 329 -25 34 -35 35 -63 5z"/>
<path d="M2151 1434 c-31 -40 -37 -87 -14 -131 11 -20 24 -38 30 -40 15 -5 76
93 76 123 0 27 -38 74 -59 74 -7 0 -22 -12 -33 -26z"/>
<path d="M3242 1383 c-21 -55 -23 -73 -13 -110 24 -87 87 -109 146 -50 l33 33
-21 62 c-19 53 -25 62 -47 62 -14 1 -36 7 -50 15 -34 19 -36 19 -48 -12z"/>
<path d="M3108 1395 c-6 -6 23 -89 35 -102 5 -4 7 17 5 47 -2 40 -7 56 -18 58
-9 1 -19 0 -22 -3z"/>
<path d="M3845 1365 c-31 -30 -33 -86 -5 -132 40 -66 125 -31 137 56 5 39 4
41 -20 41 -16 0 -35 11 -50 30 -14 17 -28 30 -32 30 -3 0 -17 -11 -30 -25z"/>
<path d="M2936 1358 c-23 -33 -20 -98 8 -149 20 -38 27 -44 52 -42 42 3 64 36
64 93 0 49 -17 80 -44 80 -7 0 -25 9 -39 20 l-26 20 -15 -22z"/>
<path d="M2302 1314 c-11 -21 -32 -50 -46 -63 -20 -19 -23 -27 -15 -38 14 -16
36 -17 78 -2 31 11 31 12 25 63 -10 78 -18 86 -42 40z"/>
<path d="M2475 1292 c-18 -12 -55 -69 -55 -84 0 -24 46 -40 75 -26 29 13 59
71 50 98 -6 20 -49 28 -70 12z"/>
<path d="M6056 1377 c-34 -34 -47 -134 -20 -154 29 -21 54 -15 90 21 26 26 34
43 34 69 0 68 -62 106 -104 64z"/>
<path d="M5135 1336 c-32 -77 -10 -156 43 -156 33 0 45 8 61 37 22 43 3 113
-31 113 -10 0 -27 9 -38 20 l-21 21 -14 -35z"/>
<path d="M6359 1331 c-48 -48 -37 -121 18 -121 45 0 75 96 43 135 -18 21 -28
19 -61 -14z"/>
<path d="M7081 1049 c-61 -91 -87 -200 -61 -250 6 -10 16 -19 23 -19 18 0 60
48 76 85 17 39 28 245 13 245 -6 0 -29 -27 -51 -61z"/>
</g>
</svg>
